<svg xmlns="http://www.w3.org/2000/svg" viewBox="0 0 500 500"><g id="freepik--Shadow--inject-410"><ellipse id="freepik--path--inject-410" cx="250" cy="415.69" rx="193.89" ry="11.32" style="fill:#f5f5f5"></ellipse></g><g id="freepik--Character--inject-410"><g id="freepik--freepik--character-1--inject-22--inject-410"><path d="M237.53,264.63c-.26-7.52,5.18-14.12,7.09.12,1.2,9.05-1.88,24.82-5.75,35.93C238.5,289.05,238,276.09,237.53,264.63Z" style="opacity:0.2"></path><polygon points="177.97 393.98 184.3 398.01 189.98 388.85 183.66 384.83 177.97 393.98" style="fill:#ff887b"></polygon><path d="M185.27,397.87l-7-6.41a.63.63,0,0,0-.87,0l-5.64,5a1.42,1.42,0,0,0,0,2l0,0c2.46,2.2,3.75,3.12,6.8,6,1.88,1.73,4.14,4.18,6.73,6.59s5-.16,4.1-1.4c-3.94-5.56-3.12-7.48-3.55-10.42A2.34,2.34,0,0,0,185.27,397.87Z" style="fill:#263238"></path><path d="M220,350.45c-12.32,18.65-31.17,40.34-31.17,40.34l-6.53-3.89s8.6-24,22.08-45.11Z" style="fill:#ff887b"></path><path d="M203.43,341.28c2.75-4.31,6.62-8,9.75-11.81,1.18-26.83-1.12-71.07,9.51-85.63l28.47,2.52s-13.72,62.11-19.82,86.08c-1.25,4.91-5.09,11.37-10,18.76Z" style="fill:#263238"></path><path d="M258.18,233.27l-8.78,0,1.59-7.84s4.9.59,6.81,3.85Z" style="fill:#ff887b"></path><path d="M245,230.91l0-3.08a2.28,2.28,0,0,1,2.2-2.27l3.85-.11-1.59,7.84-2.31-.14A2.25,2.25,0,0,1,245,230.91Z" style="fill:#ff887b"></path><path d="M275.81,207.14c0-.22-9.37-11.24-9.84-12.7l5.79-6.51c.42,1.25,12.21,14.62,12.61,17Z" style="fill:#ff887b"></path><path d="M266.34,178.3c6.12,4.66,11.82,13.81,11.82,13.81L268,201.53s-11.07-12.86-12.63-18.1C253.69,178,262,174.71,266.34,178.3Z" style="fill:#407BFF"></path><path d="M266.34,178.3c6.12,4.66,11.82,13.81,11.82,13.81L268,201.53s-11.07-12.86-12.63-18.1C253.69,178,262,174.71,266.34,178.3Z" style="opacity:0.1"></path><polygon points="247.09 414.18 255.44 414.28 255.35 405.24 247 405.15 247.09 414.18" style="fill:#ff887b"></polygon><path d="M255.92,412.53l-9.44.27a.73.73,0,0,0-.7.58l-1.42,7.53a1.24,1.24,0,0,0,1,1.44.82.82,0,0,0,.27,0c3.29-.15,4.89-.39,9-.5,2.56-.07,9.19,0,12.72-.09s3.88-3.6,2.43-3.88c-6.54-1.24-10.38-3.08-12.51-4.89A2.06,2.06,0,0,0,255.92,412.53Z" style="fill:#263238"></path><path d="M258.5,355.31c-1.76,25.48-3.15,49.93-3.15,49.93l-8.35-.09s-5.9-34.59-3.65-51.22Z" style="fill:#ff887b"></path><path d="M242.24,356.78c-.24-6.33,2.17-7.72,1.84-9.5-8.83-48.48-8.2-114.29-8.2-114.29l26.93-1.31c2.14,10,1.37,59-.86,80.69-1,9.43-.67,22.37-1.64,35.86-.16,2.27-.81,8.55-.81,8.55Z" style="fill:#263238"></path><path d="M268.33,195.56c.92,12.23-4.65,12.87-4.51,28.5a83.21,83.21,0,0,0,1,16.4c1.3,9.22.22,61.06.19,62.32l-55.35.5c-.53-48.44,17-77.43,17-80.56,0-9.37-1-18.94-5.1-37.29a7.85,7.85,0,0,1,6-9.36c.23,0,.47-.09.71-.12,2.21-.29,4.66-.55,7.14-.68A118.38,118.38,0,0,1,252,175.2c3.92.35,7.09,1.09,10.09,1.6S268.33,195.56,268.33,195.56Z" style="fill:#407BFF"></path><path d="M230.83,234.33l-1,0c-.19,0-.35-.11-.34-.23l.46-4.29c0-.12.19-.22.38-.22l1,0c.2,0,.35.09.33.22l-.44,4.28C231.2,234.23,231,234.33,230.83,234.33Z" style="fill:#407BFF"></path><path d="M260.57,234.22l-1,0c-.2,0-.35-.09-.34-.22l.45-4.29c0-.12.19-.22.39-.23l1,0c.2,0,.35.1.33.23L261,234C260.94,234.12,260.77,234.22,260.57,234.22Z" style="fill:#407BFF"></path><path d="M245.7,234.27h-1c-.2,0-.35-.1-.34-.23l.45-4.28c0-.13.19-.23.39-.23l1,0c.2,0,.34.11.33.23l-.44,4.29C246.07,234.17,245.9,234.28,245.7,234.27Z" style="fill:#407BFF"></path><path d="M281.5,203.19c-4.86-.81-20.88,5.35-24,6.85l.36,3.71,19.6-1.39a9.31,9.31,0,0,0,4.61-1.51,5,5,0,0,0,2.42-5.52C284.19,203.88,283,203.43,281.5,203.19Z" style="fill:#ff887b"></path><path d="M259.87,212.86s-2.22,2.38-4.09,2.81a11.55,11.55,0,0,1-2.39,2.92,9.28,9.28,0,0,1-4.8-.88,7.31,7.31,0,0,1,1.47-4.22,10,10,0,0,1,7.33-3.48C258.75,210,259.53,211.53,259.87,212.86Z" style="fill:#ff887b"></path><path d="M270.77,217l-2.27,20.81a1.65,1.65,0,0,1-1.61,1.43l-32.28-.13a1.27,1.27,0,0,1-1.29-1.44l2.26-20.81a1.65,1.65,0,0,1,1.61-1.43l32.28.13A1.28,1.28,0,0,1,270.77,217Z" style="fill:#263238"></path><path d="M235.67,215.84l-.1,1a1.62,1.62,0,0,1,1.61-1.43l32.27.12a1.27,1.27,0,0,1,1.3,1.44l.11-1a1.28,1.28,0,0,0-1.3-1.44l-32.28-.12A1.64,1.64,0,0,0,235.67,215.84Z" style="fill:#263238"></path><path d="M235.67,215.84l-.1,1a1.62,1.62,0,0,1,1.61-1.43l32.27.12a1.27,1.27,0,0,1,1.3,1.44l.11-1a1.28,1.28,0,0,0-1.3-1.44l-32.28-.12A1.64,1.64,0,0,0,235.67,215.84Z" style="fill:#fff;opacity:0.7000000000000001"></path><circle cx="252.99" cy="227.79" r="2.14" style="fill:#fff"></circle><path d="M217.76,186.68c-1.74,4.14-3.3,8.26-4.75,12.5-.72,2.1-1.43,4.2-2,6.43a56.57,56.57,0,0,0-1.64,6.92,18.24,18.24,0,0,0-.23,2.2,9.53,9.53,0,0,0,.1,1.69,4.91,4.91,0,0,0,.17.66l.1.41c.07.17.14.34.22.51l.14.26,0,.13h0l0,.09.13.18c.69,1,1.31,2,2.08,2.9a42.1,42.1,0,0,0,4.84,5.32,32.26,32.26,0,0,0,5.94,4.24,22.36,22.36,0,0,0,3.39,1.52c.6.2,1.21.4,1.82.55l1,.2c.37.06.62-.1,1.14,0l.66-4.34a4.16,4.16,0,0,0-.47-.24l-.61-.3c-.41-.21-.81-.46-1.21-.71a23.22,23.22,0,0,1-2.36-1.71,33.89,33.89,0,0,1-4.12-4.18c-.6-.8-1.23-1.54-1.79-2.42s-1.13-1.63-1.65-2.46-1-1.76-1.51-2.62l0-.18,0-.09h0l0,.09.05.18a3.37,3.37,0,0,0,.14.32,1.17,1.17,0,0,1,.05.2l.07.26c0,.21,0,.15,0,.06a8.14,8.14,0,0,1,.2-1.07c.43-1.75,1.07-3.8,1.77-5.78s1.42-4,2.18-6c1.52-4,3.1-8.1,4.65-12.1Z" style="fill:#ff887b"></path><path d="M228.77,233.41l8.78,0L236,225.59s-4.9.59-6.81,3.85Z" style="fill:#ff887b"></path><path d="M242,231.05l0-3.08a2.27,2.27,0,0,0-2.2-2.27l-3.84-.11,1.59,7.84,2.31-.14A2.26,2.26,0,0,0,242,231.05Z" style="fill:#ff887b"></path><g style="opacity:0.2"><path d="M225.84,209.92l5.83-15L224,196.25s.69,4.94.67,4.84Z"></path></g><path d="M235.92,180.44c2.27,9.72-13,26-13,26l-12.41-13.33s6-12.23,13.58-16C229.37,174.56,234.91,176.16,235.92,180.44Z" style="fill:#407BFF"></path><path d="M236.84,156.44c1.07,5.37,2.17,15.23-1.59,18.83,5.77,2.38,13.27,15.38,17.85,19.62,4.2-7.43-1.11-19.69-1.11-19.69-6-1.4-5.87-5.85-4.84-10Z" style="fill:#ff887b"></path><path d="M238,157.39a22.34,22.34,0,0,0,2.27,9.22c1,2,3.67,2.86,6.39,3.06a14.62,14.62,0,0,1,.51-4.51Z" style="opacity:0.2"></path><path d="M228.24,149.74c2.64,8.62,3.51,12.31,9,15.75,8.23,5.18,18.24.09,18.27-9.12,0-8.29-4.29-21-13.63-22.44a12.28,12.28,0,0,0-13.67,15.81Z" style="fill:#ff887b"></path><path d="M233.9,132.16c5.76-5.31,12.13-3.17,15.47-1.43a13.5,13.5,0,0,1,6.77,8.63,4.59,4.59,0,0,1-3.06,5.19,12.15,12.15,0,0,0-3-3.94c-2.1-1.65-6-1.82-7.55-1.36a37.45,37.45,0,0,1-6.06,9.82c-1.58,1.75-5.27,4.21-4.32,9,.37,1.88,4.08,5.64,5.66,7.75l0,1.47c-4.35-1.81-8.52-6-9.69-7.1-5.59-5.35-8.76-10.47-3.58-22.14C226.77,133.1,233.9,132.16,233.9,132.16Z" style="fill:#263238"></path><path d="M252,144.93l.06-.06a.42.42,0,0,0,0-.6,4.28,4.28,0,0,0-3.7-1.15.43.43,0,0,0-.32.51h0a.43.43,0,0,0,.51.32,3.38,3.38,0,0,1,3,.93A.43.43,0,0,0,252,144.93Z" style="fill:#263238"></path><path d="M228.14,156.2l.48.29,1-1.58a6.25,6.25,0,0,1,3.92-2.81l5.18.15a4.37,4.37,0,0,0,8.48-2.11.71.71,0,0,1,.87-.2,4.48,4.48,0,1,0-.11-.63,1.3,1.3,0,0,0-.94.22,4.36,4.36,0,0,0-8.42,2.18l-5.19-.16a6.85,6.85,0,0,0-4.27,3.07Zm20.41-6.54a3.83,3.83,0,1,1,4.59,2.86A3.83,3.83,0,0,1,248.55,149.66Zm-9.39,2.2a3.83,3.83,0,1,1,4.59,2.85A3.83,3.83,0,0,1,239.16,151.86Z" style="fill:#407BFF"></path><path d="M226.29,154.6a6.46,6.46,0,0,0,3.21,3.9c2,1.05,3.53-.66,3.36-2.84-.16-1.95-1.43-4.86-3.67-5a3,3,0,0,0-3.08,2.83A3.11,3.11,0,0,0,226.29,154.6Z" style="fill:#ff887b"></path><path d="M241.15,151.07c.18.71.69,1.2,1.16,1.09s.7-.78.53-1.49-.68-1.2-1.15-1.09S241,150.36,241.15,151.07Z" style="fill:#263238"></path><path d="M249.2,149.16c.17.72.68,1.2,1.15,1.09s.71-.77.53-1.49-.68-1.19-1.14-1.08S249,148.45,249.2,149.16Z" style="fill:#263238"></path><path d="M249.54,147.77l1.6-.91S250.57,148.41,249.54,147.77Z" style="fill:#263238"></path><path d="M247.87,150.12a19.37,19.37,0,0,0,3.61,3.95,3.17,3.17,0,0,1-2.42,1.08Z" style="fill:#ba4d3c"></path><path d="M247.29,158.3a.24.24,0,0,0,.08-.24.21.21,0,0,0-.26-.14h0A5.82,5.82,0,0,1,242,157a.21.21,0,0,0-.28.32,6.1,6.1,0,0,0,5.56,1Z" style="fill:#263238"></path><path d="M239.18,148a.8.8,0,0,0,.15-.17,3.36,3.36,0,0,1,2.34-2,.43.43,0,0,0-.14-.85h0a4.29,4.29,0,0,0-3,2.54.42.42,0,0,0,.25.56A.41.41,0,0,0,239.18,148Z" style="fill:#263238"></path><path d="M241.49,149.67l1.6-.9S242.53,150.32,241.49,149.67Z" style="fill:#263238"></path></g></g><g id="freepik--Plant--inject-410"><path d="M298.78,381.19a29,29,0,0,0-12.1-7.74c-.15-.52-.74-.87-.89-1.4a29.78,29.78,0,0,1,14.44,7.68C299.85,380.4,299.17,380.52,298.78,381.19Z" style="fill:#263238"></path><g style="opacity:0.30000000000000004"><path d="M298.78,381.19a29,29,0,0,0-12.1-7.74c-.15-.52-.74-.87-.89-1.4a29.78,29.78,0,0,1,14.44,7.68C299.85,380.4,299.17,380.52,298.78,381.19Z" style="fill:#fff"></path></g><path d="M313.35,369.93a10.71,10.71,0,0,1-6.73,6.63,10.78,10.78,0,0,0-3.22,1.22l0,0a2,2,0,0,0,.65,3.44,14.73,14.73,0,0,1,5,2.6c1.79,1.56,2.89,4.45,2.06,6.68-1.42,1.17-4.06.65-5.33-.67-.45-2.38-3-3.67-5.18-4.65-2.61-1.16-5.62-2.89-5-6.18a5.08,5.08,0,0,1,3.23-3.43c10.36-3.12,11.43-8.12,11.43-8.12,1.19,0,1.43-.43,2.62-.43A3,3,0,0,1,313.35,369.93Z" style="fill:#263238"></path><path d="M313.35,369.93a10.71,10.71,0,0,1-6.73,6.63,10.78,10.78,0,0,0-3.22,1.22l0,0a2,2,0,0,0,.65,3.44,14.73,14.73,0,0,1,5,2.6c1.79,1.56,2.89,4.45,2.06,6.68-1.42,1.17-4.06.65-5.33-.67-.45-2.38-3-3.67-5.18-4.65-2.61-1.16-5.62-2.89-5-6.18a5.08,5.08,0,0,1,3.23-3.43c10.36-3.12,11.43-8.12,11.43-8.12,1.19,0,1.43-.43,2.62-.43A3,3,0,0,1,313.35,369.93Z" style="fill:#fff;opacity:0.30000000000000004"></path><path d="M286.31,397.74,300,391a19.44,19.44,0,0,1,16.89-.36l16,7.15h0a54.28,54.28,0,0,1-46.58,0Z" style="fill:#263238"></path><path d="M308.68,387.06a20.7,20.7,0,0,1,9.68-7.17c.29-.1.74-.84.48-1a29.76,29.76,0,0,0-9.6,3.93,6.75,6.75,0,0,0-2.68,3C307.25,386.75,307.52,387.08,308.68,387.06Z" style="fill:#263238"></path><path d="M308.68,387.06a20.7,20.7,0,0,1,9.68-7.17c.29-.1.74-.84.48-1a29.76,29.76,0,0,0-9.6,3.93,6.75,6.75,0,0,0-2.68,3C307.25,386.75,307.52,387.08,308.68,387.06Z" style="fill:#fff;opacity:0.30000000000000004"></path><path d="M316.58,421.51H300.26a11.61,11.61,0,0,1-9.85-5.47l-10.3-16.57a1.44,1.44,0,0,1,1.22-2.2h54.18a1.45,1.45,0,0,1,1.22,2.2L326.42,416A11.58,11.58,0,0,1,316.58,421.51Z" style="fill:#407BFF"></path><path d="M287.87,371.76c-.89-2-1.51-2.22,0-3.85a4.55,4.55,0,0,0,3.65-2.13,4.94,4.94,0,0,0,.29-4.41,10.55,10.55,0,0,0-5,6.57,4.18,4.18,0,0,0-.65-3.89,3,3,0,0,0-3.06-1.16v.24a3.16,3.16,0,0,0,1.39,2.36,3.36,3.36,0,0,1,1.22,3.25c-.33,1.67.41.71-.84,1.87a2.65,2.65,0,0,0-1.73-3.68,4.53,4.53,0,0,0-.8,5.44c-.92-1.31-2.6-2.13-3.68-1.67-.67.28-2.87,2.29-2.27,4.32,1.33-1.29,1.8-1.23,3.61-.87a5.86,5.86,0,0,1,4.16,3.36C286.76,377,288.94,374.18,287.87,371.76Z" style="fill:#407BFF"></path><path d="M312.32,342.91a10.06,10.06,0,0,0-6.63-2.4c-.57,1.41.29,3.45,2.08,3.41-.77-1.68-4.84-1.62-6.17-.14-.57.64-.9,2-.21,2.51a2.67,2.67,0,0,0,2.63.21c-2.59-.93-6.76,1.81-6.76,4.17a6.64,6.64,0,0,0-4.71-.06,2.84,2.84,0,0,0-1.75,2.68,24.16,24.16,0,0,0,7.78.2c-2.18,1.8-3.63,5.23-1.94,7.25,1.12-.78,2.71-1,3.84-1.83a13.74,13.74,0,0,1-5.67,5.15,2.72,2.72,0,0,0,3.23,0c-3.19.35-6.4,3.26-5.81,5.83a2.09,2.09,0,0,1,2.89-1.3c-1.17,1.07-.26,2.84,1.44,3,2.05.16,3.69.11,5-1.23-.28.9-1.46,1.78-1.74,2.68,3.25-.08,6.88-1.49,8.36-3.91-.34.77-.46,1.78.49,2,.55.59-.15-.76.4-.17a10.15,10.15,0,0,0,4-2.29,7.62,7.62,0,0,0,6.44,3.94c2.3-1.39,3-4.61,1.23-6.33a6.74,6.74,0,0,0,5.43.66,5.28,5.28,0,0,1-3.18-2.6,8.13,8.13,0,0,0,5.08-.46c.92-2.14-2-4.71-4.69-4.57,1.13-1.82,3.83-2.67,6.25-2.41.64-.91,0-1.75-.93-2.39a3.23,3.23,0,0,0-3.45.06c2.19-2.12,2-5.06.94-7.64-2.4.94-4.26,3-3.79,5.09a11.12,11.12,0,0,0,.62-6.82c-2.5-1.13-7.23,1.2-7.47,3.58,1.05-2-.92-4.62-3-5.83C312.43,342.75,312.51,343.07,312.32,342.91Z" style="fill:#407BFF"></path><path d="M322.05,374.69l-.85-.6c.73-1,1.46-2,2.18-3,1,.3,2.58,1.23,2.66,2.26a2.64,2.64,0,0,1-1.47,2.53c1-.9,3.82-.22,4.22,1.06s-1.17,2.72-2.35,2.08c2,0,4.24,2.7,4,4.65a3.23,3.23,0,0,1-4.71-.05c1,.64,1.87,2.39,1.27,3.37a2.33,2.33,0,0,1-3,.77c-1.54-.88-2.35-2.71-1.19-4a4,4,0,0,0-3.95,2.08c-.71-1.22.16-3.09,1.39-3.77-1.76-.92-3.43-1.82-5.36-1.36.43-1.3,1.42-2.93,2.76-3.22a4,4,0,0,1,3.75,1.2,5.14,5.14,0,0,1-4.33-4.67C318.07,373,320.87,373.92,322.05,374.69Z" style="fill:#407BFF"></path><path d="M280.48,364.78a3.82,3.82,0,0,0,5.83,2.81c-.51-.58-1-1.11-1.52-1.63a4.34,4.34,0,0,0-4.28-1.18Z" style="fill:#407BFF"></path><path d="M286.72,369.49a3.5,3.5,0,0,0,3.54,2.4,3.13,3.13,0,0,0-2.54-3.3C287.26,368.53,286.59,369,286.72,369.49Z" style="fill:#407BFF"></path><path d="M288.2,373.65a2.35,2.35,0,0,0,1.22,4.31C290.48,376.52,289.7,374.62,288.2,373.65Z" style="fill:#407BFF"></path><path d="M281.11,378.47a3.09,3.09,0,0,1,1.7-3.74,2,2,0,0,1,.63,2.58A1.93,1.93,0,0,1,281.11,378.47Z" style="fill:#407BFF"></path><path d="M329.2,382.17c.67-.39,1.33-.79,2-1.19a2.77,2.77,0,0,0,2.95.78s.29.2.28.22a1.74,1.74,0,0,0-.88-1.84,3.08,3.08,0,0,0-2.13-.25,3,3,0,0,0-1-2.55,2.13,2.13,0,0,0-.55,1.63,1.82,1.82,0,0,0,.7,1.41,5.76,5.76,0,0,0-2.13,1.46C328.76,382,328.91,382.06,329.2,382.17Z" style="fill:#407BFF"></path></g><g id="freepik--speech-bubbles--inject-410"><g id="freepik--freepik--speech-bubbles--inject-120--inject-410"><path d="M201.48,295.85l-31.45.43a4.22,4.22,0,0,1-4.35-4.26l.06-33.06a4.37,4.37,0,0,1,4.36-4.31l13.48-.32c6.72-9.52,17.79-11.07,17.79-11.07s-6.23,6.31-7.36,11l7.52,0a4.32,4.32,0,0,1,4.32,3.64,3.18,3.18,0,0,1,0,.62l0,33A4.38,4.38,0,0,1,201.48,295.85Z" style="fill:#fff"></path><path d="M169.87,296.78a4.81,4.81,0,0,1-4.64-4.07,4.12,4.12,0,0,1,0-.7l.06-33.05a4.9,4.9,0,0,1,4.85-4.81l13.23-.32c6.78-9.4,17.86-11.05,18-11.06l1.46-.21-1,1.05c-.06.06-5.6,5.72-7,10.15l6.85,0a4.81,4.81,0,0,1,4.81,4.06,4.23,4.23,0,0,1,0,.71l0,33a4.85,4.85,0,0,1-4.85,4.82h0l-31.45.43Zm30-52.71c-3.22.81-10.88,3.39-15.93,10.55l-.15.2-13.73.33a3.86,3.86,0,0,0-3.87,3.83l-.06,33a3.31,3.31,0,0,0,0,.55,3.78,3.78,0,0,0,3.79,3.21l31.46-.43a3.88,3.88,0,0,0,3.87-3.83l0-33a2.51,2.51,0,0,0,0-.55,3.8,3.8,0,0,0-3.8-3.21l-8.17.05.15-.63C194.39,250.55,198.06,246.14,199.92,244.07Z" style="fill:#407BFF"></path></g><rect x="171.92" y="260.38" width="27.74" height="29.76" rx="2.73" style="fill:#407BFF"></rect><path d="M191.28,270.42c0,3.58-1.92,6.48-5.5,6.48s-5.5-2.9-5.5-6.48,1.93-6.48,5.5-6.48S191.28,266.84,191.28,270.42Z" style="fill:#fff;opacity:0.8"></path><path d="M196,283.28c-.92-3.09-3.31-5.15-6-5.15h-8.41c-2.68,0-5.07,2.06-6,5.15l-1.42,4.8a.61.61,0,0,0,.47.24h22.28a.61.61,0,0,0,.48-.24Z" style="fill:#fff;opacity:0.8"></path><g id="freepik--freepik-speech-bubbles-inject-120--inject-410"><path d="M200.51,125.61l-71.85-.43a4.31,4.31,0,0,0-4.31,3.63,4.44,4.44,0,0,0,0,.63l.06,33.05a4.36,4.36,0,0,0,4.36,4.31l53.88.33c6.72,9.52,17.79,11.06,17.79,11.06s-6.22-6.31-7.35-11l7.52,0a4.3,4.3,0,0,0,4.31-3.63,4.4,4.4,0,0,0,0-.62l0-33.06A4.37,4.37,0,0,0,200.51,125.61Z" style="fill:#fff"></path><path d="M201.79,178.89l-1.46-.2c-.11,0-11.2-1.66-18-11.06l-53.62-.33a4.89,4.89,0,0,1-4.86-4.79l-.06-33.07a4.2,4.2,0,0,1,0-.7,4.82,4.82,0,0,1,4.82-4.06l71.84.43a4.9,4.9,0,0,1,4.85,4.8l0,33.07a4.08,4.08,0,0,1,0,.69,4.8,4.8,0,0,1-4.82,4.06l-6.84,0c1.45,4.43,7,10.08,7,10.14Zm-73.26-53.21a3.8,3.8,0,0,0-3.68,3.21,3.23,3.23,0,0,0,0,.53l.06,33.07a3.85,3.85,0,0,0,3.87,3.81l54.13.33.15.21c5,7.16,12.71,9.74,15.93,10.54-1.86-2.07-5.52-6.48-6.39-10.07l-.15-.62,8.16,0a3.8,3.8,0,0,0,3.81-3.2,3.27,3.27,0,0,0,0-.54l0-33.07a3.87,3.87,0,0,0-3.87-3.81l-71.84-.43Z" style="fill:#407BFF"></path></g><rect x="157.09" y="136.54" width="40.74" height="1" style="fill:#407BFF"></rect><rect x="135.35" y="136.54" width="14.17" height="1" style="fill:#407BFF"></rect><rect x="180.5" y="145.19" width="17.76" height="1" style="fill:#407BFF"></rect><rect x="131.33" y="145.19" width="42.84" height="1" style="fill:#407BFF"></rect><rect x="153.37" y="153.83" width="45.13" height="1" style="fill:#407BFF"></rect><rect x="131.58" y="153.83" width="14.75" height="1" style="fill:#407BFF"></rect><g id="freepik--freepik-speech-bubbles-inject-120--inject-410"><path d="M275.15,117.24l31.44-.43a4.31,4.31,0,0,1,4.31,3.64,3.18,3.18,0,0,1,0,.62l-.05,31.21a4.39,4.39,0,0,1-4.37,4.31l-13.47.32c-6.72,9.52-17.79,11.07-17.79,11.07s6.22-6.31,7.35-11l-7.52,0a4.22,4.22,0,0,1-4.35-4.26l.05-31.2A4.38,4.38,0,0,1,275.15,117.24Z" style="fill:#fff"></path><path d="M273.87,168.68l1-1.05c.06-.06,5.6-5.72,7.05-10.15l-6.86,0a4.83,4.83,0,0,1-4.81-4.07,5.48,5.48,0,0,1,0-.7l.05-31.19a4.91,4.91,0,0,1,4.84-4.82h0l31.44-.43a4.85,4.85,0,0,1,4.82,4.07,4.11,4.11,0,0,1,0,.7l-.05,31.2a4.91,4.91,0,0,1-4.85,4.81l-13.23.31c-6.78,9.41-17.87,11.06-18,11.07Zm9.38-12.21-.15.62c-.87,3.6-4.53,8-6.4,10.07,3.23-.8,10.88-3.38,15.94-10.54l.14-.2,13.73-.33a3.87,3.87,0,0,0,3.88-3.83l.05-31.19a3.32,3.32,0,0,0,0-.55,3.82,3.82,0,0,0-3.8-3.21l-31.45.43a3.87,3.87,0,0,0-3.87,3.83l-.05,31.19a4.93,4.93,0,0,0,0,.55,3.82,3.82,0,0,0,3.8,3.21Z" style="fill:#407BFF"></path></g><path d="M290.77,122.18a9.65,9.65,0,0,0-9.64,9.64c0,5.32,9.64,18.87,9.64,18.87s9.64-13.55,9.64-18.87A9.65,9.65,0,0,0,290.77,122.18Zm.09,14.27a4.57,4.57,0,1,1,4.56-4.56A4.56,4.56,0,0,1,290.86,136.45Z" style="fill:#407BFF"></path><g id="freepik--freepik-speech-bubbles-inject-120--inject-410"><path d="M295.18,165.11l71.85-.43a4.31,4.31,0,0,1,4.31,3.64,3.18,3.18,0,0,1,0,.62L371.32,202a4.37,4.37,0,0,1-4.36,4.31l-53.88.32c-6.72,9.52-17.79,11.07-17.79,11.07s6.22-6.32,7.35-11l-7.52.05a4.22,4.22,0,0,1-4.35-4.26l.05-33A4.38,4.38,0,0,1,295.18,165.11Z" style="fill:#fff"></path><path d="M293.9,218.4l1-1.05c.06-.06,5.6-5.72,7.05-10.15l-6.86,0a4.84,4.84,0,0,1-4.81-4.07,5.48,5.48,0,0,1,0-.7l.05-33a4.85,4.85,0,0,1,4.84-4.82h0l71.85-.43a4.83,4.83,0,0,1,4.81,4.07,4,4,0,0,1,.05.7L371.82,202a4.91,4.91,0,0,1-4.85,4.81l-53.63.32c-6.79,9.4-17.87,11.05-18,11.06Zm9.38-12.21-.15.62c-.87,3.6-4.53,8-6.4,10.07,3.23-.8,10.88-3.38,15.94-10.54l.15-.21,54.13-.32a3.86,3.86,0,0,0,3.87-3.83l.06-33a3.31,3.31,0,0,0,0-.55,3.8,3.8,0,0,0-3.8-3.21l-71.86.43a3.87,3.87,0,0,0-3.86,3.83l-.05,33a4.93,4.93,0,0,0,0,.55,3.82,3.82,0,0,0,3.8,3.21Z" style="fill:#407BFF"></path></g><rect x="333.35" y="172.71" width="33.24" height="27.97" rx="0.86" style="fill:#407BFF"></rect><path d="M348.32,192.63l-3.83,6.67-8.87.07a.8.8,0,0,1-.8-.81V198L343,185.39Z" style="fill:#fff;opacity:0.8"></path><path d="M365.26,196l-8.43-14.66-10.38,18.05h18a.8.8,0,0,0,.8-.81Z" style="fill:#407BFF"></path><path d="M365.27,196v2.58a.81.81,0,0,1-.81.81h-18l2.23-3.87,8.15-14.18Z" style="fill:#fff;opacity:0.8"></path><path d="M352.21,179.28A2.25,2.25,0,1,1,350,177,2.25,2.25,0,0,1,352.21,179.28Z" style="fill:#fff;opacity:0.8"></path><rect x="296.01" y="177.54" width="32.78" height="1" style="fill:#407BFF"></rect><rect x="296.01" y="186.19" width="32.78" height="1" style="fill:#407BFF"></rect><rect x="296.47" y="194.84" width="32.31" height="1" style="fill:#407BFF"></rect><path d="M191.33,208.62l0,18.3a3.18,3.18,0,0,1,0,.62,4.32,4.32,0,0,1-4.32,3.64l-7.52,0-10.43-.07-53.88-.32a4.39,4.39,0,0,1-4.37-4.31l0-33.06a4.22,4.22,0,0,1,4.35-4.26l71.85.43a4.38,4.38,0,0,1,4.36,4.32v4.52c9.13,6.74,10.63,17.47,10.63,17.47S196,210,191.33,208.62Z" style="fill:#fff"></path><path d="M187.15,231.69H187l-71.81-.43a4.91,4.91,0,0,1-4.87-4.79l0-33.07a4.12,4.12,0,0,1,0-.7,4.8,4.8,0,0,1,4.82-4.06l71.83.42a4.87,4.87,0,0,1,4.86,4.81v4.28c9,6.8,10.61,17.54,10.63,17.65l.2,1.46-1.05-1c-.06-.06-5.4-5.29-9.77-6.91l0,17.61a3.37,3.37,0,0,1,0,.7A4.85,4.85,0,0,1,187.15,231.69ZM115,189.62a3.8,3.8,0,0,0-3.68,3.22,3.27,3.27,0,0,0,0,.54l0,33.06a3.87,3.87,0,0,0,3.88,3.81l71.82.43a3.84,3.84,0,0,0,3.83-3.21,3,3,0,0,0,0-.52l0-19,.64.18c3.51,1,7.68,4.49,9.67,6.28-.79-3.16-3.28-10.58-10.12-15.63l-.2-.15v-4.76a3.88,3.88,0,0,0-3.87-3.83l-71.84-.43Z" style="fill:#407BFF"></path><rect x="151.95" y="202.05" width="32.78" height="1" style="fill:#407BFF"></rect><rect x="151.95" y="210.7" width="32.78" height="1" style="fill:#407BFF"></rect><rect x="152.01" y="219.35" width="32.71" height="1" style="fill:#407BFF"></rect><rect x="115.12" y="193.26" width="30.89" height="33.15" rx="3.04" style="fill:#407BFF"></rect><g style="opacity:0.8"><polygon points="115.93 214.5 117.08 215.9 125.26 209.67 134.49 213.16 142.53 206.37 143.06 207.47 145.24 203.29 140.99 203.23 141.53 204.33 134.35 211.49 125.1 208.07 115.93 214.5" style="fill:#fff"></polygon></g><g id="freepik--freepik-speech-bubbles-inject-120--inject-410"><path d="M274.34,290.91l31.44.43a4.31,4.31,0,0,0,4.31-3.64,3.23,3.23,0,0,0,0-.62L310.08,254a4.38,4.38,0,0,0-4.37-4.31l-13.47-.32c-6.72-9.52-17.79-11.07-17.79-11.07s6.22,6.31,7.35,11l-7.52,0a4.22,4.22,0,0,0-4.35,4.26l.05,33A4.38,4.38,0,0,0,274.34,290.91Z" style="fill:#fff"></path><path d="M305.93,291.84h-.17l-31.44-.43a4.9,4.9,0,0,1-4.84-4.8l-.05-33.07a4.08,4.08,0,0,1,.05-.69,4.83,4.83,0,0,1,4.82-4.07l6.84,0c-1.45-4.43-7-10.09-7.05-10.15l-1-1,1.46.21c.11,0,11.2,1.66,18,11.07l13.23.31a4.91,4.91,0,0,1,4.85,4.8l.05,33.07a4.05,4.05,0,0,1,0,.69A4.83,4.83,0,0,1,305.93,291.84Zm-31.58-1.43,31.44.43a3.8,3.8,0,0,0,3.81-3.21,3.26,3.26,0,0,0,0-.54L309.58,254a3.87,3.87,0,0,0-3.88-3.81L292,249.88l-.14-.2c-5.06-7.16-12.71-9.74-15.94-10.54,1.87,2.06,5.53,6.47,6.4,10.07l.15.62-8.16-.05a3.8,3.8,0,0,0-3.81,3.21,3.27,3.27,0,0,0,0,.54l.05,33.06A3.87,3.87,0,0,0,274.35,290.41Z" style="fill:#407BFF"></path></g><rect x="277.51" y="262.37" width="25.05" height="18.79" rx="2.79" style="fill:#407BFF"></rect><g style="opacity:0.8"><polygon points="287.4 266.34 295.09 271.76 287.4 277.19 287.4 266.34" style="fill:#fff"></polygon></g><path d="M249.47,124a2.17,2.17,0,1,1-2.13-1.79A2,2,0,0,1,249.47,124Z" style="fill:#fff"></path><path d="M247.34,126.32A2.31,2.31,0,1,1,250,124,2.49,2.49,0,0,1,247.34,126.32Zm0-3.58A1.33,1.33,0,1,0,249,124,1.5,1.5,0,0,0,247.34,122.74Z" style="fill:#407BFF"></path><ellipse cx="248.69" cy="120.53" rx="2.67" ry="2.24" style="fill:#fff"></ellipse><path d="M248.69,123.28a2.77,2.77,0,1,1,3.18-2.75A3,3,0,0,1,248.69,123.28Zm0-4.49a1.79,1.79,0,1,0,2.18,1.74A2,2,0,0,0,248.69,118.79Z" style="fill:#407BFF"></path><ellipse cx="248.16" cy="115.75" rx="4.68" ry="3.93" style="fill:#fff"></ellipse><path d="M248.16,120.18c-2.86,0-5.18-2-5.18-4.43s2.32-4.44,5.18-4.44,5.19,2,5.19,4.44S251,120.18,248.16,120.18Zm0-7.87c-2.3,0-4.18,1.54-4.18,3.44s1.88,3.43,4.18,3.43,4.19-1.54,4.19-3.43S250.47,112.31,248.16,112.31Z" style="fill:#407BFF"></path><ellipse cx="238.29" cy="99.88" rx="21.39" ry="17.96" style="fill:#fff"></ellipse><path d="M238.29,118.35c-12.07,0-21.89-8.29-21.89-18.47s9.82-18.46,21.89-18.46,21.9,8.28,21.9,18.46S250.36,118.35,238.29,118.35Zm0-35.93c-11.52,0-20.89,7.84-20.89,17.46s9.37,17.47,20.89,17.47,20.9-7.84,20.9-17.47S249.81,82.42,238.29,82.42Z" style="fill:#407BFF"></path><path d="M235.91,89.07A2.79,2.79,0,0,1,239,86.49c1.76,0,3,1.06,3,2.48a3.08,3.08,0,0,1-6.1.1Zm.65,5.61h4.77v18.38h-4.77Z" style="fill:#263238"></path></g></svg>